<svg id="Layer_1" data-name="Layer 1" xmlns="http://www.w3.org/2000/svg" viewBox="0 0 18.42 16.9"><defs><style>.cls-1{fill:#5f7336;}</style></defs><path class="cls-1" d="M13.36,0A5.53,5.53,0,0,0,9.21,1.93,5.5,5.5,0,0,0,5.07,0,5,5,0,0,0,0,5.07C0,8.55,3.13,11.39,7.88,15.7l1.33,1.2,1.34-1.21c4.74-4.3,7.87-7.14,7.87-10.62A5,5,0,0,0,13.36,0ZM9.3,14.14l-.09.09-.09-.09c-4.7-4.26-7.69-7-7.23-9.84a2.74,2.74,0,0,1,.48-1.17,3.42,3.42,0,0,1,6,.7h1.73a3.41,3.41,0,0,1,6-.67,2.83,2.83,0,0,1,.47,1.15C17,7.17,14,9.88,9.3,14.14Z"/></svg>