<svg id="Layer_1" data-name="Layer 1" xmlns="http://www.w3.org/2000/svg" xmlns:xlink="http://www.w3.org/1999/xlink" viewBox="0 0 243.9 308.38"><defs><style>.cls-1{fill:url(#linear-gradient);}.cls-2{fill:url(#linear-gradient-2);}.cls-3{fill:url(#linear-gradient-3);}.cls-4{fill:#5c7436;}</style><linearGradient id="linear-gradient" x1="46.06" y1="63.68" x2="91.59" y2="63.68" gradientUnits="userSpaceOnUse"><stop offset="0" stop-color="#b2c351"/><stop offset="0.09" stop-color="#a4b64d"/><stop offset="0.34" stop-color="#859943"/><stop offset="0.57" stop-color="#6e853c"/><stop offset="0.8" stop-color="#617837"/><stop offset="1" stop-color="#5c7436"/></linearGradient><linearGradient id="linear-gradient-2" x1="47.45" y1="175.51" x2="90.2" y2="175.51" xlink:href="#linear-gradient"/><linearGradient id="linear-gradient-3" x1="49.09" y1="270.9" x2="88.56" y2="270.9" xlink:href="#linear-gradient"/></defs><path class="cls-1" d="M49.64,8.2s.55,100.87-1.75,102.86c-2.48,2.14-1.72,5.54-1.72,5.54A2.53,2.53,0,0,0,49,119.23c3,0,3-7.5,20.87-7.5s17.89,7.5,17.89,7.5,6-3.75,3-7.5-3-11.25-3-26.25.24-71.3.3-74.51c0-1.7,0-2.84,0-2.84C84.86,8.4,49.64,8.2,49.64,8.2Z"/><path class="cls-2" d="M69.34,116.08S47.45,117.29,47.45,124s2.8,3.36,2.8,10.09v87.46s0,6.72-2.8,10.09c0,0,0,3.36,2.8,3.36s2.8-6.73,19.58-6.73S86.62,235,86.62,235s5.59,0,2.79-6.73a39.35,39.35,0,0,1-2.79-13.45v-74s0-13.46,2.79-13.46S85.62,114.87,69.34,116.08Z"/><path class="cls-3" d="M69.91,233.42s-16.78,0-19.58,5.76c-4,8.14,2.8,5.76,2.8,14.39v48.94a5.53,5.53,0,0,1-1.21,3.18c-1.24,1.77-1.59,2.58,6.8,2.58s26.43.83,25.84-2c-.65-3.12-.66-.87-.66-3.75s0-52.74,2.8-55.16,5.59-13.93-16.79-13.93"/><path class="cls-4" d="M157.77,148.18c43.94-5.59,79.1-29.21,79.1-74.31,0-5.11-.27-20.87-9.51-35.58C203.9.89,141.46.53,124.21.44h-2c-13.62,0-29,.86-40.87.86C66.36,1.29,8.79,0,5.71,0,.88,0,0,1.72,0,3.86a4.09,4.09,0,0,0,4.39,4.3H42.22l27.54.14H89a12,12,0,0,0-2.6.2l6.65-.08c42.19,0,98.44.43,98.44,70.56,0,66.65-50.54,67.52-94.05,67.52l-10.92.05-1.29-1.28c0,1.16,0,2.33.1,3.49a25.56,25.56,0,0,1,.11,3.71H97.12c44.83,0,101.08,3,101.08,74.74,0,10-.11,33.21-16.58,50.75,0,0-23.48,25-76.67,21.27-.2,0-17-2-20.2-2.11l.36.22c104.85,22.44,140.46-34.88,138.54-68.8a46.84,46.84,0,0,1,.95,8.49c.48,54.07-62.86,75.52-122.95,64.8A109.49,109.49,0,0,1,86.22,298c2.07,1.23,5.72,3.36,6.66,3.76,5.65,2.44,15.67,6.62,33.69,6.62,48.78,0,117.33-14.6,117.33-79.89C243.9,179.1,204.79,155.05,157.77,148.18Z"/></svg>